<svg width="20" height="11" viewBox="0 0 20 11" fill="none" xmlns="http://www.w3.org/2000/svg">
<path fill-rule="evenodd" clip-rule="evenodd" d="M2.97925 8.25842C5.19619 9.84159 7.49897 10.6784 9.6386 10.6784C11.7783 10.6784 14.0811 9.84154 16.298 8.25842C17.9553 7.07497 18.9781 5.90241 19.0209 5.85308C19.196 5.65086 19.196 5.35075 19.0209 5.14857C18.9781 5.0992 17.9552 3.92668 16.298 2.74323C14.0811 1.16015 11.7782 0.323334 9.6386 0.323334C7.49901 0.323334 5.19624 1.1602 2.97925 2.74323C1.32193 3.92668 0.29907 5.09925 0.256327 5.14857C0.0812242 5.3508 0.0812242 5.6509 0.256327 5.85308C0.29907 5.90249 1.32197 7.07497 2.97925 8.25842ZM3.62586 7.39789C2.59508 6.66437 1.81439 5.92268 1.40074 5.50089C1.81448 5.07897 2.59521 4.33728 3.62586 3.60389C5.039 2.5983 7.22925 1.39952 9.6386 1.39952C12.048 1.39952 14.2382 2.5983 15.6513 3.60389C16.6821 4.33741 17.4629 5.0791 17.8765 5.50089C17.4627 5.92272 16.682 6.6645 15.6513 7.39789C14.2382 8.40344 12.048 9.60226 9.6386 9.60226C7.22925 9.60226 5.039 8.40344 3.62586 7.39789Z" fill="#666666"/>
<ellipse cx="9.74028" cy="5.49999" rx="3.20513" ry="3.20513" fill="#666666"/>
<path d="M12.4189 5.649C11.8255 5.649 11.3428 5.16626 11.3428 4.5729C11.3428 3.97953 11.8255 3.4968 12.4189 3.4968C13.0123 3.4968 13.495 3.97953 13.495 4.5729C13.495 5.16626 13.0123 5.649 12.4189 5.649Z" fill="white"/>
</svg>
