<svg width="20" height="22" viewBox="0 0 20 22" fill="none" xmlns="http://www.w3.org/2000/svg">
<path fill-rule="evenodd" clip-rule="evenodd" d="M9.64301 10.7513C8.97034 10.7505 8.36306 11.0227 7.92325 11.4617C7.48236 11.9024 7.20937 12.5118 7.20937 13.1845C7.20857 13.5858 7.306 13.9651 7.47719 14.298C7.60636 14.5495 7.77915 14.7761 7.98566 14.9679L7.98493 17.4309H7.98216H7.98493C7.98376 17.8032 8.13435 18.1404 8.37835 18.3835C8.6225 18.6283 8.96037 18.78 9.3326 18.78V18.7824V18.78L9.94767 18.7806C10.3005 18.7806 10.6214 18.6456 10.8611 18.4245L10.9031 18.3868C11.1459 18.1437 11.2968 17.8059 11.2976 17.432L11.2982 14.9687C11.5038 14.778 11.6764 14.5514 11.8066 14.2996C11.9787 13.9675 12.0753 13.5885 12.0764 13.1853C12.0764 12.5134 11.8042 11.9051 11.3652 11.4653C10.9254 11.0243 10.3159 10.7513 9.64301 10.7513ZM13.9329 8.32184V6.9323C13.9329 5.74847 13.4526 4.67641 12.6773 3.9007C11.9019 3.12551 10.8296 2.64551 9.64624 2.64551C8.46241 2.64551 7.39115 3.12551 6.61457 3.9007C5.83938 4.67641 5.35938 5.74847 5.35938 6.9323V8.32184H13.9329ZM17.1682 21.49H2.11638C1.53357 21.49 1.00398 21.2523 0.620534 20.8686C0.23716 20.4852 0 19.9564 0 19.3727V10.439C0 9.85534 0.23716 9.32626 0.620534 8.94289C0.912233 8.65119 1.28862 8.4433 1.70993 8.36109V6.93194C1.7108 5.85777 1.92539 4.83347 2.31233 3.90143C2.71558 2.93109 3.30706 2.05716 4.04126 1.32369C4.77284 0.592187 5.64735 0.00230813 6.61791 -0.400071C7.55104 -0.786721 8.57527 -1.0008 9.64922 -0.999998C10.7235 -0.999998 11.7478 -0.784828 12.6799 -0.397376C13.6493 0.00587606 14.5239 0.597065 15.2575 1.33054C15.9891 2.06313 16.5787 2.93707 16.981 3.9074C17.368 4.84024 17.5815 5.86454 17.5815 6.9385L17.5809 8.36168C17.9993 8.44578 18.3735 8.65199 18.6642 8.94289C19.0478 9.32626 19.2847 9.85534 19.2847 10.439V19.3727C19.2847 19.9564 19.0478 20.4852 18.6642 20.8686C18.2808 21.2523 17.7513 21.49 17.1682 21.49Z" fill="white"/>
</svg>
