<svg width="418" height="129" viewBox="0 0 418 129" fill="none" xmlns="http://www.w3.org/2000/svg">
<g clip-path="url(#clip0_888_162)">
<mask id="mask0_888_162" style="mask-type:luminance" maskUnits="userSpaceOnUse" x="0" y="0" width="418" height="73">
<rect x="0.740234" y="0.899811" width="416.636" height="71.296" fill="white"/>
</mask>
<g mask="url(#mask0_888_162)">
<path d="M10.7205 8.06583L10.3142 8.12592C10.3293 7.94565 10.3443 7.76537 10.3593 7.60012C10.5098 6.44334 10.9612 5.42177 11.5932 4.58048L11.9994 4.52039C11.3524 5.36168 10.9161 6.38325 10.7506 7.54002C10.7506 7.70528 10.7355 7.88555 10.7205 8.06583" fill="#A6510E"/>
<path d="M12.0142 4.50535L11.6079 4.56545C11.7885 4.32508 11.9991 4.09973 12.2248 3.88941L12.6311 3.82932C12.4054 4.02462 12.2098 4.26499 12.0142 4.50535" fill="#A6510E"/>
<path d="M12.6315 3.81426L12.2252 3.87435C12.4058 3.7091 12.6014 3.54384 12.797 3.39361L13.2033 3.33352C13.0077 3.48375 12.812 3.64901 12.6315 3.81426" fill="#A7510E"/>
<path d="M13.203 3.33352L12.7968 3.39361C12.9773 3.2584 13.1729 3.13822 13.3685 3.01803L13.7748 2.95794C13.5792 3.07813 13.3836 3.19831 13.203 3.33352" fill="#A8520F"/>
<path d="M13.7748 2.95798L13.3686 3.01807C13.5642 2.91291 13.7598 2.80775 13.9554 2.71761L14.3617 2.65752C14.151 2.76268 13.9554 2.85282 13.7748 2.95798" fill="#A9520F"/>
<path d="M14.3618 2.67253L13.9556 2.73262C14.1512 2.64248 14.3618 2.56736 14.5725 2.50727L14.9788 2.44718C14.7681 2.50727 14.5575 2.58239 14.3618 2.67253" fill="#A9530F"/>
<path d="M14.9788 2.43215L14.5725 2.49224C14.7982 2.41713 15.0239 2.37206 15.2647 2.32699L15.6709 2.2669C15.4302 2.31197 15.2045 2.37206 14.9788 2.43215" fill="#AA5310"/>
<path d="M15.6705 2.2819L15.2642 2.34199L15.3244 2.32697L15.7307 2.26688L15.6705 2.2819" fill="#AB5310"/>
<path d="M17.732 14.7511L17.3258 14.8112C16.739 14.9013 16.1221 14.9163 15.4901 14.8112C12.3755 14.3004 10.1486 11.3709 10.3141 8.12592L10.7203 8.06583C10.5548 11.2958 12.7667 14.2403 15.8964 14.7511C16.5283 14.8412 17.1452 14.8412 17.732 14.7511" fill="#A6510E"/>
<path d="M11.4122 8.0958C11.4273 7.93055 11.4574 7.76529 11.4574 7.61506C11.8636 4.52031 14.6172 2.40205 17.5663 2.88279C20.38 3.34851 22.3812 5.99257 22.2307 8.90705C22.2157 9.0723 22.1856 9.23755 22.1856 9.38778C21.7643 12.4825 19.0258 14.6158 16.0767 14.1201C13.263 13.6543 11.2618 11.0103 11.4122 8.0958" fill="#E7711F"/>
<path d="M11.4126 8.09578L10.7205 8.06573L10.7355 8.02066L11.4126 8.05071V8.09578" fill="#E06E1E"/>
<path d="M11.4127 8.05077L10.7356 8.02073V7.94561L11.4277 7.99068L11.4127 8.05077" fill="#E06E1E"/>
<path d="M11.4277 7.99066L10.7356 7.94559V7.85546L11.4277 7.90052V7.99066" fill="#E16F1E"/>
<path d="M11.4273 7.90053L10.7352 7.85546L10.7653 7.60007L11.4574 7.67518L11.4273 7.90053" fill="#E26F1E"/>
<path d="M11.4578 7.67517L10.7656 7.60006L10.7807 7.53996L11.4578 7.61508V7.67517" fill="#E16F1E"/>
<path d="M11.4578 7.61507L10.7807 7.53996V7.52494V7.50991L11.4578 7.60005V7.61507V7.61507" fill="#E26F1E"/>
<path d="M11.4579 7.60003L10.7808 7.50989L10.7958 7.37469L11.4729 7.46482L11.4579 7.60003" fill="#E36F1E"/>
<path d="M11.4728 7.46484L10.7957 7.37471L10.8258 7.22448L11.5029 7.34466L11.4728 7.46484" fill="#E3701E"/>
<path d="M11.503 7.34464L10.8259 7.22445L10.856 7.08925L11.5181 7.20943L11.503 7.34464" fill="#E4701E"/>
<path d="M11.518 7.20948L10.856 7.08929L10.8861 6.95408L11.5481 7.08929L11.518 7.20948" fill="#E5701E"/>
<path d="M11.5478 7.0893L10.8857 6.9541L10.9158 6.81889L11.5779 6.96912L11.5478 7.0893" fill="#E6711E"/>
<path d="M11.5783 6.96913L10.9163 6.8189L10.9464 6.68369L11.6084 6.84894L11.5783 6.96913" fill="#E6711F"/>
<path d="M11.6083 6.84886L10.9463 6.68361L10.9764 6.5484L11.6384 6.72868L11.6083 6.84886" fill="#E7711F"/>
<path d="M11.6382 6.72872L10.9761 6.54844L11.0213 6.42825L11.6833 6.62355L11.6382 6.72872" fill="#E8721F"/>
<path d="M11.6833 6.62359L11.0212 6.42829L11.0664 6.3081L11.7134 6.5034L11.6833 6.62359" fill="#E9721F"/>
<path d="M11.7134 6.50338L11.0664 6.30808L11.0965 6.18789L11.7586 6.39822L11.7134 6.50338" fill="#E9721F"/>
<path d="M11.759 6.39822L11.0969 6.1879L11.1421 6.06771L11.7891 6.29306L11.759 6.39822" fill="#EA731F"/>
<path d="M11.7891 6.29303L11.1421 6.06769L11.2023 5.93248L11.8342 6.17285L11.7891 6.29303" fill="#EB731F"/>
<path d="M11.8338 6.17285L11.2019 5.9475L11.247 5.82732L11.879 6.06769L11.8338 6.17285" fill="#EC741F"/>
<path d="M11.8787 6.06769L11.2468 5.82732L11.307 5.70714L11.9239 5.96253L11.8787 6.06769" fill="#ED7420"/>
<path d="M11.9242 5.96253L11.3073 5.70714L11.3525 5.58696L11.9844 5.85737L11.9242 5.96253" fill="#EE7420"/>
<path d="M11.9845 5.8574L11.3525 5.58699L11.4127 5.4668L12.0296 5.75224L11.9845 5.8574" fill="#EF7520"/>
<path d="M12.0297 5.75224L11.4128 5.46681L11.473 5.34662L12.0899 5.64708L12.0297 5.75224" fill="#F07520"/>
<path d="M12.0895 5.64708L11.4726 5.34662L11.5479 5.22644L12.1497 5.54192L12.0895 5.64708" fill="#F17620"/>
<path d="M12.1498 5.54193L11.5329 5.22644L11.6082 5.10626L12.21 5.43676L12.1498 5.54193" fill="#F27720"/>
<path d="M12.2099 5.4367L11.6081 5.1062L11.6833 4.98601L12.2701 5.31652L12.2099 5.4367" fill="#F47721"/>
<path d="M12.2703 5.31656L11.6835 4.98605L11.7587 4.86587L12.3456 5.2114L12.2703 5.31656" fill="#F57F2B"/>
<path d="M12.3455 5.21139L11.7587 4.86586L11.8339 4.7607L12.4057 5.10623L12.3455 5.21139" fill="#F58230"/>
<path d="M12.4054 5.10627L11.8337 4.76074L11.9239 4.62553L12.4957 5.00111L12.4054 5.10627" fill="#F58433"/>
<path d="M12.4957 5.00105L11.9239 4.62547L12.0142 4.50529L12.5709 4.89589L12.4957 5.00105" fill="#F68636"/>
<path d="M12.571 4.89589L12.0143 4.50529L12.1046 4.3851L12.6613 4.7757L12.571 4.89589" fill="#F68839"/>
<path d="M12.6614 4.77572L12.1047 4.38512L12.225 4.24991L12.7667 4.65553L12.6614 4.77572" fill="#F6893C"/>
<path d="M12.7669 4.65551L12.2252 4.24989L12.3456 4.11468L12.8722 4.53533L12.7669 4.65551" fill="#F68B3E"/>
<path d="M12.8719 4.53534L12.3453 4.11469L12.4657 3.97948L12.9772 4.41515L12.8719 4.53534" fill="#F68C41"/>
<path d="M12.9773 4.4152L12.4657 3.97953L12.6162 3.8293L13.1127 4.27999L12.9773 4.4152" fill="#F68D43"/>
<path d="M13.1128 4.27997L12.6163 3.82928L12.7667 3.69407L13.2482 4.15979L13.1128 4.27997" fill="#F78F45"/>
<path d="M13.248 4.15981L12.7665 3.6941L12.9621 3.51382L13.4286 3.99456L13.248 4.15981" fill="#F79047"/>
<path d="M13.4291 3.99456L12.9626 3.51383L13.2034 3.33355L13.6397 3.82931L13.4291 3.99456" fill="#F79149"/>
<path d="M13.6395 3.82929L13.2032 3.33353L13.5041 3.12321L13.9104 3.64902L13.6395 3.82929" fill="#F7924B"/>
<path d="M13.9104 3.64899L13.5042 3.12318C13.7148 2.98797 13.9405 2.85277 14.1813 2.7476L14.5273 3.30346C14.3167 3.40862 14.106 3.51378 13.9104 3.64899" fill="#F7934D"/>
<path d="M14.5273 3.30347L14.1813 2.74761C14.3618 2.6725 14.5273 2.59738 14.7079 2.52227L14.9938 3.09314C14.8433 3.16826 14.6778 3.22835 14.5273 3.30347" fill="#F7944E"/>
<path d="M15.0089 3.10818L14.723 2.53731C14.9638 2.44717 15.2196 2.37205 15.4754 2.32698L15.7011 2.92791C15.4453 2.95795 15.2196 3.01805 15.0089 3.10818" fill="#F7934D"/>
<path d="M15.6862 2.91287L15.4755 2.31195C15.641 2.2819 15.8065 2.25186 15.972 2.23683L16.1376 2.83776C15.9871 2.85278 15.8366 2.88283 15.6862 2.91287" fill="#F7924B"/>
<path d="M16.1375 2.83773L15.972 2.2368C16.1074 2.22178 16.2429 2.20676 16.3933 2.20676L16.5287 2.80768L16.1375 2.83773" fill="#F79149"/>
<path d="M16.4981 2.80769L16.3777 2.19175H16.7539L16.8442 2.80769H16.4981" fill="#F79047"/>
<path d="M16.8441 2.80766L16.7538 2.19171L17.13 2.20673L17.1751 2.82268L16.8441 2.80766" fill="#F78F45"/>
<path d="M17.1758 2.82273L17.1307 2.20678L17.4767 2.25185L17.5068 2.85278L17.1758 2.82273" fill="#F68D43"/>
<path d="M17.5067 2.85275L17.4766 2.25182L17.5669 2.26685L17.8528 2.32694L17.8227 2.91284L17.5669 2.86777L17.5067 2.85275" fill="#F68C41"/>
<path d="M17.8226 2.91282L17.8527 2.32692L18.2138 2.41706L18.1536 3.00296L17.8226 2.91282" fill="#F68B3E"/>
<path d="M18.1534 3.00303L18.2136 2.41713L18.5597 2.52229L18.4694 3.10819L18.1534 3.00303" fill="#F6893C"/>
<path d="M18.4697 3.10819L18.56 2.52229L18.9211 2.67252L18.8008 3.22837L18.4697 3.10819" fill="#F68839"/>
<path d="M18.8004 3.22832L18.9207 2.67246L19.2668 2.8227L19.1163 3.37855L18.8004 3.22832" fill="#F68636"/>
<path d="M19.1166 3.37855L19.2671 2.8227L19.6131 3.018L19.4175 3.54381L19.1166 3.37855" fill="#F58433"/>
<path d="M19.4173 3.54385L19.6129 3.01804L19.959 3.22836L19.7333 3.73915L19.4173 3.54385" fill="#F58230"/>
<path d="M19.7332 3.73915L19.9589 3.22837L20.2749 3.46874L20.0191 3.94948L19.7332 3.73915" fill="#F57F2B"/>
<path d="M20.0194 3.94947L20.2752 3.46873L20.5761 3.72412L20.2902 4.17481L20.0194 3.94947" fill="#F47721"/>
<path d="M20.2899 4.1748L20.5758 3.7241L20.8617 3.99452L20.5457 4.41517L20.2899 4.1748" fill="#F27720"/>
<path d="M20.546 4.41517L20.862 3.99452L21.1178 4.26494L20.7717 4.67056L20.546 4.41517" fill="#F17620"/>
<path d="M20.7714 4.67056L21.1175 4.26494L21.3582 4.5654L20.9971 4.94098L20.7714 4.67056" fill="#F07520"/>
<path d="M20.997 4.94101L21.3581 4.56543L21.5687 4.85087L21.1926 5.1964L20.997 4.94101" fill="#EF7520"/>
<path d="M21.1928 5.19637L21.5689 4.85083L21.7645 5.1513L21.3583 5.46678L21.1928 5.19637" fill="#EE7420"/>
<path d="M21.3583 5.46677L21.7646 5.15129L21.9452 5.45175L21.5238 5.73719L21.3583 5.46677" fill="#ED7420"/>
<path d="M21.5241 5.73718L21.9454 5.45174L22.0958 5.7522L21.6595 6.0076L21.5241 5.73718" fill="#EC741F"/>
<path d="M21.6596 6.00762L22.0959 5.75223L22.2313 6.03767L21.7799 6.26302L21.6596 6.00762" fill="#EB731F"/>
<path d="M21.7796 6.26298L22.231 6.03764L22.3364 6.3381L21.885 6.5334L21.7796 6.26298" fill="#EA731F"/>
<path d="M21.8851 6.53339L22.3365 6.33809L22.4418 6.62353L21.9754 6.8038L21.8851 6.53339" fill="#E9721F"/>
<path d="M21.9754 6.80381L22.4419 6.62353L22.5322 6.90897L22.0507 7.0592L21.9754 6.80381" fill="#E9721F"/>
<path d="M22.0503 7.05926L22.5318 6.90903L22.592 7.20949L22.1105 7.31465L22.0503 7.05926" fill="#E8721F"/>
<path d="M22.1109 7.31462L22.5924 7.20946L22.6526 7.4949L22.156 7.57001L22.1109 7.31462" fill="#E7711F"/>
<path d="M22.1561 7.57001L22.6526 7.4949L22.6977 7.78034L22.2012 7.8254L22.1561 7.57001" fill="#E6711F"/>
<path d="M22.2009 7.82541L22.6975 7.76532L22.7276 8.05076L22.216 8.0808L22.2009 7.82541" fill="#E6711E"/>
<path d="M22.2163 8.0808L22.7279 8.05076L22.7429 8.33619H22.2314L22.2163 8.0808" fill="#E5701E"/>
<path d="M22.2309 8.33619H22.7425V8.62163L22.246 8.59158L22.2309 8.33619" fill="#E4701E"/>
<path d="M22.246 8.59162L22.7425 8.62166V8.89208L22.2309 8.84701L22.246 8.59162" fill="#E3701E"/>
<path d="M22.2314 8.84694L22.7429 8.89201L22.7279 8.9521V9.10233L22.2163 9.02721L22.2314 8.89201V8.84694" fill="#E36F1E"/>
<path d="M22.2159 9.02727L22.7275 9.10239L22.6824 9.47796L22.1858 9.3728L22.2159 9.02727" fill="#E26F1E"/>
<path d="M22.1862 9.3728L22.6827 9.47796V9.47796L22.1862 9.3728V9.3728V9.3728Z" fill="#E36F1E"/>
<path d="M22.1861 9.37281L22.6827 9.47797L22.6526 9.65825L22.1711 9.52304L22.1861 9.37281" fill="#E26F1E"/>
<path d="M22.1707 9.52304L22.6522 9.65825L22.6371 9.8235L22.1406 9.6883L22.1707 9.52304" fill="#E16F1E"/>
<path d="M22.1409 9.68823L22.6375 9.82344L22.5923 10.0037L22.1108 9.83846L22.1409 9.68823" fill="#E06E1E"/>
<path d="M22.1105 9.83853L22.592 10.0038L22.5318 10.2742L22.0503 10.0789L22.1105 9.83853" fill="#E06E1E"/>
<path d="M22.0502 10.0788L22.5317 10.2741L22.4565 10.5295L21.99 10.3192L22.0502 10.0788" fill="#DF6E1D"/>
<path d="M21.9752 10.3193L22.4567 10.5296L22.3664 10.8L21.9 10.5596L21.9752 10.3193" fill="#DE6D1D"/>
<path d="M21.8999 10.5596L22.3664 10.7999L22.2761 11.0553L21.8097 10.7849L21.8999 10.5596" fill="#DD6D1D"/>
<path d="M21.8096 10.7849L22.2761 11.0553L22.1557 11.3107L21.7193 11.0253L21.8096 10.7849" fill="#DC6C1D"/>
<path d="M21.7193 11.0253L22.1557 11.3108L22.0353 11.5662L21.599 11.2507L21.7193 11.0253" fill="#DC6C1D"/>
<path d="M21.5992 11.2507L22.0356 11.5661L21.9002 11.8215L21.4788 11.476L21.5992 11.2507" fill="#DB6C1D"/>
<path d="M21.4788 11.476L21.9001 11.8216L21.7496 12.0619L21.3434 11.7014L21.4788 11.476" fill="#DA6B1D"/>
<path d="M21.3432 11.7014L21.7494 12.0619L21.5839 12.3173L21.1927 11.9267L21.3432 11.7014" fill="#D96B1D"/>
<path d="M21.193 11.9267L21.5842 12.3173L21.4036 12.5577L21.0425 12.137L21.193 11.9267" fill="#D96B1C"/>
<path d="M21.0424 12.137L21.4035 12.5577L21.2079 12.798L20.8619 12.3473L21.0424 12.137" fill="#D86A1C"/>
<path d="M20.8617 12.3474L21.2077 12.7981L20.9971 13.0234L20.6661 12.5727L20.8617 12.3474" fill="#D76A1C"/>
<path d="M20.6663 12.5727L20.9973 13.0234L20.7565 13.2638L20.4556 12.768L20.6663 12.5727" fill="#D66A1C"/>
<path d="M20.4554 12.768L20.7563 13.2638L20.5005 13.4891L20.2146 12.9783L20.4554 12.768" fill="#D6691C"/>
<path d="M20.2149 12.9783L20.5008 13.4891L20.2149 13.6994L19.9741 13.1736L20.2149 12.9783" fill="#D5691C"/>
<path d="M19.9739 13.1736L20.2146 13.6994L19.9137 13.9097L19.688 13.3689L19.9739 13.1736" fill="#D4681C"/>
<path d="M19.6881 13.3689L19.9138 13.9098L19.5678 14.1201L19.3872 13.5492L19.6881 13.3689" fill="#D3681B"/>
<path d="M19.3873 13.5492L19.5679 14.1201L19.1917 14.3003L19.0413 13.7144L19.3873 13.5492" fill="#D3681B"/>
<path d="M19.041 13.7144L19.1914 14.3003C19.056 14.3604 18.9055 14.4205 18.7701 14.4806L18.6648 13.8797L19.041 13.7144" fill="#D2671B"/>
<path d="M18.6652 13.8797L18.7705 14.4806C18.605 14.5407 18.4545 14.5858 18.289 14.6308L18.2288 14.0149C18.3642 13.9698 18.5147 13.9248 18.6652 13.8797" fill="#D1671B"/>
<path d="M18.2285 14.0149L18.2887 14.6308C18.0931 14.6759 17.8974 14.721 17.7018 14.751V14.1201C17.8674 14.09 18.0479 14.06 18.2285 14.0149" fill="#D1671B"/>
<path d="M17.702 14.12V14.751C17.4613 14.7961 17.2205 14.8111 16.9647 14.8111L17.04 14.1801C17.2657 14.1801 17.4763 14.1501 17.702 14.12" fill="#D0661B"/>
<path d="M17.04 14.1802L16.9647 14.8111C16.6187 14.8261 16.2575 14.7961 15.8964 14.736L15.746 14.706L15.9416 14.075L16.077 14.09C16.393 14.1651 16.724 14.1802 17.04 14.1802" fill="#CF661A"/>
<path d="M15.9416 14.0901L15.746 14.721C15.1441 14.6008 14.5874 14.4055 14.0608 14.1201L14.4219 13.5492C14.9034 13.8046 15.3999 13.9849 15.9416 14.0901" fill="#CE651A"/>
<path d="M14.4368 13.5492L14.0757 14.1201C13.7296 13.9398 13.3986 13.7144 13.0976 13.4741L13.549 12.9633C13.8199 13.1886 14.1208 13.3839 14.4368 13.5492" fill="#CF661A"/>
<path d="M13.5492 12.9633L13.0978 13.4741C12.9172 13.3238 12.7367 13.1586 12.5712 12.9933L13.0677 12.5426C13.2332 12.6929 13.3837 12.8281 13.5492 12.9633" fill="#D0661B"/>
<path d="M13.0825 12.5427L12.5859 12.9934C12.4505 12.8582 12.3301 12.7229 12.2098 12.5727L12.7515 12.1521L13.0825 12.5427" fill="#D1671B"/>
<path d="M12.7516 12.1671L12.2099 12.5878L11.924 12.2122L12.4958 11.8216L12.7516 12.1671" fill="#D1671B"/>
<path d="M12.496 11.8215L11.9243 12.2121L11.6986 11.8666L12.2854 11.5211L12.496 11.8215" fill="#D2671B"/>
<path d="M12.2852 11.5211L11.6984 11.8666L11.5178 11.5511L12.1197 11.2356L12.2852 11.5211" fill="#D3681B"/>
<path d="M12.1199 11.2357L11.518 11.5512L11.3525 11.2507L11.9845 10.9653L12.1199 11.2357" fill="#D3681B"/>
<path d="M11.9845 10.9652L11.3525 11.2507L11.2321 10.9652L11.8791 10.7098L11.9845 10.9652" fill="#D4681C"/>
<path d="M11.879 10.7098L11.232 10.9652L11.1267 10.7098L11.7737 10.4694L11.879 10.7098" fill="#D5691C"/>
<path d="M11.7736 10.4694L11.1266 10.7098L11.0363 10.4544L11.6983 10.2441L11.7736 10.4694" fill="#D6691C"/>
<path d="M11.6984 10.2441L11.0364 10.4545L10.9762 10.2141L11.6382 10.0338L11.6984 10.2441" fill="#D66A1C"/>
<path d="M11.6381 10.0338L10.9761 10.2141L10.9159 9.98872L11.5779 9.82346L11.6381 10.0338" fill="#D76A1C"/>
<path d="M11.5783 9.82346L10.9162 9.98871L10.8561 9.77839L11.5332 9.62816L11.5783 9.82346" fill="#D86A1C"/>
<path d="M11.5327 9.62821L10.8556 9.77844L10.8255 9.56811L11.5026 9.44793L11.5327 9.62821" fill="#D96B1C"/>
<path d="M11.5029 9.44789L10.8258 9.56807L10.7957 9.35775L11.4728 9.26761L11.5029 9.44789" fill="#D96B1D"/>
<path d="M11.4729 9.26763L10.7958 9.35777L10.7657 9.17749L11.4428 9.08735L11.4729 9.26763" fill="#DA6B1D"/>
<path d="M11.4424 9.08736L10.7653 9.16248L10.7503 8.9822L11.4273 8.92211L11.4424 9.08736" fill="#DB6C1D"/>
<path d="M11.4277 8.92211L10.7507 8.9822L10.7356 8.80193L11.4127 8.75686L11.4277 8.92211" fill="#DC6C1D"/>
<path d="M11.4126 8.75683L10.7355 8.8019L10.7205 8.62162L11.4126 8.6066V8.75683" fill="#DC6C1D"/>
<path d="M11.4126 8.60657L10.7205 8.6216V8.45634L11.4126 8.44132V8.60657" fill="#DD6D1D"/>
<path d="M11.4126 8.44132L10.7205 8.45634V8.29109L11.4126 8.30611V8.44132" fill="#DE6D1D"/>
<path d="M11.4126 8.30611L10.7205 8.29108V8.12583L11.4126 8.15587V8.30611" fill="#DF6E1D"/>
<path d="M11.4126 8.15593L10.7205 8.12589V8.0658L11.4126 8.09584V8.15593" fill="#E06E1E"/>
<path fill-rule="evenodd" clip-rule="evenodd" d="M349.193 69.4351H357.845V51.7679H357.996L371.793 69.4351H383.274L367.46 50.536L382.341 34.8219H371.222L357.86 49.1689V14.9163H349.193V69.4351ZM235.577 69.435H227.196L212.119 18.3866H222.08L231.679 55.1631H231.83L243.31 18.3866H252.263L263.533 55.1631H263.684L273.72 18.3866H282.958L268.077 69.435H259.41L247.569 30.5703H247.418L235.577 69.435ZM285.11 65.3337C283.425 63.7413 282.1 61.8334 281.107 59.5949C280.129 57.3565 279.633 54.8777 279.633 52.1285C279.633 49.3792 280.114 46.9004 281.107 44.662C282.085 42.4235 283.425 40.5156 285.11 38.9232C286.795 37.3307 288.781 36.1139 291.098 35.2425C293.416 34.3862 295.868 33.9505 298.471 33.9505C301.074 33.9505 303.527 34.3712 305.844 35.2425C308.146 36.1139 310.147 37.3307 311.833 38.9232C313.518 40.5156 314.842 42.4235 315.835 44.662C316.813 46.9004 317.309 49.3943 317.309 52.1285C317.309 54.8777 316.828 57.3565 315.835 59.5949C314.857 61.8334 313.518 63.7413 311.833 65.3337C310.147 66.9262 308.161 68.143 305.844 69.0144C303.527 69.8707 301.074 70.3064 298.471 70.3064C295.868 70.3064 293.416 69.8857 291.098 69.0144C288.796 68.143 286.795 66.9262 285.11 65.3337ZM288.992 48.2375C289.443 46.9906 290.12 45.8789 291.008 44.9174C291.896 43.9559 292.964 43.1897 294.228 42.6038C295.477 42.0329 296.906 41.7325 298.486 41.7325C300.066 41.7325 301.495 42.0179 302.744 42.6038C303.993 43.1747 305.061 43.9559 305.964 44.9174C306.852 45.8789 307.529 46.9906 307.98 48.2375C308.432 49.4844 308.673 50.7914 308.673 52.1285C308.673 53.4805 308.447 54.7725 307.98 56.0194C307.529 57.2663 306.852 58.3781 305.964 59.3395C305.076 60.301 304.008 61.0672 302.744 61.6531C301.495 62.224 300.066 62.5244 298.486 62.5244C296.906 62.5244 295.477 62.239 294.228 61.6531C292.979 61.0822 291.911 60.301 291.008 59.3395C290.12 58.3781 289.443 57.2663 288.992 56.0194C288.525 54.7725 288.3 53.4655 288.3 52.1285C288.3 50.7914 288.525 49.4844 288.992 48.2375ZM331.92 69.435H323.253V34.8219H331.92V40.3053H332.07C333.033 38.2922 334.417 36.7298 336.193 35.6181C337.968 34.5214 340.015 33.9656 342.332 33.9656C342.859 33.9656 343.37 34.0257 343.882 34.1158C344.378 34.2059 344.905 34.3261 345.432 34.4763V42.8442C344.709 42.6489 343.987 42.4987 343.295 42.3785C342.588 42.2583 341.911 42.1982 341.234 42.1982C339.217 42.1982 337.577 42.5738 336.358 43.3099C335.14 44.046 334.192 44.9024 333.545 45.8638C332.898 46.8253 332.461 47.7868 332.251 48.7483C332.025 49.7097 331.92 50.4308 331.92 50.9116V69.435ZM404.58 35.1524C406.852 35.9486 408.673 37.3007 410.072 39.2236L404.234 44.4216C402.549 42.063 400.292 40.8912 397.448 40.8912C396.289 40.8912 395.161 41.1917 394.047 41.7625C392.949 42.3334 392.392 43.2799 392.392 44.5718C392.392 45.6385 392.844 46.4047 393.761 46.8854C394.664 47.3661 395.823 47.7868 397.222 48.1173C398.621 48.4628 400.126 48.8084 401.736 49.1689C403.346 49.5295 404.851 50.0703 406.25 50.8214C407.634 51.5726 408.793 52.5942 409.711 53.8862C410.629 55.1781 411.08 56.9659 411.08 59.2193C411.08 61.2925 410.629 63.0352 409.741 64.4474C408.853 65.8595 407.695 67.0013 406.28 67.8726C404.866 68.744 403.256 69.3599 401.48 69.7505C399.705 70.1261 397.914 70.3214 396.139 70.3214C393.445 70.3214 390.963 69.9308 388.706 69.1646C386.449 68.3984 384.417 67.0013 382.642 64.9882L388.42 59.5799C389.533 60.8268 390.722 61.8484 392.001 62.6446C393.28 63.4408 394.83 63.8314 396.665 63.8314C397.297 63.8314 397.944 63.7713 398.621 63.6211C399.299 63.4709 399.93 63.2305 400.502 62.9C401.089 62.5695 401.556 62.1488 401.917 61.6381C402.278 61.1273 402.458 60.5414 402.458 59.8653C402.458 58.6635 402.007 57.7621 401.089 57.1912C400.186 56.6053 399.028 56.1396 397.628 55.7791C396.229 55.4185 394.724 55.088 393.114 54.7725C391.504 54.457 390 53.9462 388.6 53.2552C387.216 52.5641 386.058 51.5876 385.14 50.3407C384.222 49.0788 383.77 47.3511 383.77 45.1427C383.77 43.2198 384.162 41.5522 384.959 40.125C385.757 38.6978 386.81 37.5411 388.104 36.6246C389.413 35.7233 390.903 35.0472 392.588 34.6116C394.273 34.1759 395.988 33.9656 397.719 33.9656C400.036 33.9656 402.323 34.3562 404.58 35.1524Z" fill="#C6C8D1"/>
<path fill-rule="evenodd" clip-rule="evenodd" d="M172.306 69.4351H167.972V63.6061H167.822C167.145 64.7629 166.302 65.7544 165.294 66.5957C164.286 67.437 163.187 68.1281 162.014 68.6839C160.84 69.2398 159.591 69.6454 158.297 69.9158C157.003 70.1712 155.724 70.3064 154.475 70.3064C151.933 70.3064 149.57 69.8858 147.404 69.0144C145.237 68.1581 143.371 66.9412 141.836 65.3788C140.302 63.8164 139.083 61.9536 138.225 59.8203C137.367 57.687 136.931 55.3434 136.931 52.7895C136.931 50.2356 137.352 47.907 138.225 45.7587C139.098 43.6104 140.302 41.7626 141.836 40.2002C143.386 38.6378 145.237 37.4359 147.404 36.5646C149.57 35.7083 151.917 35.2726 154.475 35.2726C155.724 35.2726 157.003 35.3928 158.297 35.6632C159.591 35.9336 160.84 36.3392 162.014 36.8951C163.187 37.4509 164.286 38.142 165.294 38.9833C166.302 39.8246 167.145 40.8161 167.822 41.9729H167.972V14.9314H172.306V69.4351ZM70.9818 58.4833C70.064 59.8804 69.0107 61.0672 67.807 62.0588C66.6033 63.0503 65.3394 63.8615 64.0153 64.5075C62.6912 65.1535 61.337 65.6343 59.9377 65.9497C58.5383 66.2652 57.1992 66.4154 55.8901 66.4154C52.5648 66.4154 49.5706 65.8446 46.8923 64.6878C44.214 63.531 41.9419 61.9536 40.0611 59.9255C38.1803 57.8974 36.7358 55.5237 35.7277 52.7895C34.7196 50.0553 34.208 47.0958 34.208 43.9259C34.208 40.756 34.7196 37.7965 35.7277 35.0623C36.7358 32.3281 38.1803 29.9394 40.0611 27.9263C41.9419 25.9133 44.214 24.3208 46.8923 23.164C49.5706 22.0073 52.5648 21.4364 55.8901 21.4364C58.4932 21.4364 61.0361 21.9922 63.5037 23.0889C65.9864 24.2006 68.0177 25.9433 69.6126 28.347L73.5097 25.102C71.2527 22.2176 68.6045 20.1594 65.5952 18.9425C62.5859 17.7107 59.3508 17.1097 55.8751 17.1097C51.978 17.1097 48.3969 17.7858 45.1469 19.1228C41.8968 20.4749 39.1132 22.3378 36.8111 24.7114C34.4939 27.0851 32.6883 29.9094 31.3943 33.1844C30.1003 36.4594 29.4382 40.0349 29.4382 43.9259C29.4382 47.8169 30.0852 51.4074 31.3943 54.7125C32.6883 58.0025 34.4939 60.8419 36.8111 63.2155C39.1282 65.5892 41.8968 67.452 45.1469 68.7741C48.3969 70.0961 51.978 70.7571 55.8751 70.7571C59.6367 70.7571 63.1275 70.036 66.3475 68.5938C69.5675 67.1516 72.4113 64.7779 74.8639 61.4578L70.9818 58.4833ZM80.2356 69.4351H84.554V51.2572C84.554 49.6196 84.7646 48.1023 85.201 46.6751C85.6373 45.2629 86.2994 44.016 87.1871 42.9644C88.0749 41.9128 89.2034 41.0715 90.5876 40.4706C91.9569 39.8697 93.5819 39.5692 95.4627 39.5692C95.9894 39.5692 96.5461 39.6593 97.1179 39.8546L97.6294 35.6031L97.3588 35.5469C97.0183 35.4761 96.6872 35.4072 96.3655 35.3477C95.9593 35.2726 95.538 35.2426 95.1016 35.2426C92.6039 35.2426 90.4823 35.8735 88.752 37.1204C87.0216 38.3674 85.5922 39.9748 84.4938 41.9579C84.4035 41.6274 84.3433 40.8762 84.3132 39.7194L84.3062 39.449L84.3062 39.4483L84.3062 39.4477C84.2783 38.3747 84.2495 37.2635 84.2079 36.1139H79.8745C79.8745 36.5496 79.9046 37.1655 79.9497 37.9467C79.9948 38.7429 80.04 39.5992 80.055 40.5006C80.0851 41.417 80.1152 42.3184 80.1604 43.2048C80.2055 44.0911 80.2356 44.8573 80.2356 45.4733V69.4351ZM122.336 64.823C124.412 63.7714 125.992 62.3292 127.106 60.4963L130.295 63.1704C128.61 65.7244 126.534 67.5422 124.051 68.6539C121.568 69.7506 118.83 70.3064 115.851 70.3064C113.293 70.3064 110.991 69.8858 108.914 69.0144C106.853 68.1581 105.062 66.9412 103.573 65.3788C102.083 63.8164 100.94 61.9536 100.142 59.8203C99.3446 57.672 98.9534 55.3134 98.9534 52.7144C98.9534 50.2055 99.3747 47.907 100.187 45.7888C101 43.6705 102.158 41.8377 103.648 40.2753C105.138 38.7129 106.898 37.481 108.914 36.5946C110.93 35.7083 113.172 35.2576 115.625 35.2576C118.183 35.2576 120.425 35.7083 122.381 36.5946C124.322 37.481 125.962 38.6528 127.286 40.1251C128.61 41.5973 129.603 43.2649 130.28 45.1428C130.957 47.0206 131.288 48.9136 131.288 50.8365V53.8712H103.272C103.272 54.7876 103.452 55.9594 103.813 57.3715C104.175 58.7837 104.837 60.1658 105.8 61.5179C106.763 62.855 108.057 64.0117 109.667 64.9732C111.277 65.9347 113.353 66.4154 115.911 66.4154C118.123 66.4154 120.259 65.8746 122.336 64.823ZM103.272 49.9652C103.272 49.5295 103.467 48.7333 103.844 47.5465C104.235 46.3747 104.882 45.1578 105.8 43.9109C106.717 42.664 107.951 41.5523 109.516 40.5908C111.081 39.6293 113.037 39.1486 115.399 39.1486C116.994 39.1486 118.499 39.434 119.913 40.0199C121.328 40.5908 122.561 41.372 123.6 42.3635C124.638 43.355 125.45 44.4968 126.052 45.7888C126.654 47.0807 126.955 48.4779 126.955 49.9652H103.272ZM167.325 58.0776C166.603 59.7302 165.61 61.1724 164.361 62.4043C163.112 63.6362 161.638 64.5977 159.952 65.3188C158.267 66.0399 156.431 66.4004 154.46 66.4004C152.444 66.4004 150.608 66.0399 148.968 65.3188C147.328 64.5977 145.929 63.6211 144.785 62.4043C143.627 61.1724 142.754 59.7302 142.152 58.0776C141.55 56.4251 141.249 54.6524 141.249 52.7745C141.249 50.8966 141.55 49.1389 142.152 47.4713C142.754 45.8188 143.627 44.3766 144.785 43.1447C145.944 41.9128 147.343 40.9513 148.968 40.2302C150.608 39.5091 152.429 39.1486 154.46 39.1486C156.431 39.1486 158.267 39.5091 159.952 40.2302C161.638 40.9513 163.112 41.9278 164.361 43.1447C165.61 44.3766 166.603 45.8188 167.325 47.4713C168.047 49.1239 168.409 50.8966 168.409 52.7745C168.409 54.6524 168.047 56.4251 167.325 58.0776ZM185.892 69.4351H181.559V36.1289H185.892V69.4351ZM181.409 25.2372C182.041 25.8682 182.808 26.1686 183.726 26.1686C184.644 26.1686 185.411 25.8531 186.043 25.2372C186.675 24.6062 186.976 23.84 186.976 22.9236C186.976 22.0072 186.66 21.241 186.043 20.6101C185.411 19.9791 184.644 19.6786 183.726 19.6786C182.808 19.6786 182.041 19.9941 181.409 20.6101C180.777 21.241 180.476 22.0072 180.476 22.9236C180.476 23.84 180.777 24.6062 181.409 25.2372ZM202.775 36.1289H212.284V40.0199H202.745V61.7282C202.745 63.2155 203.166 64.3723 203.978 65.1835C204.806 66.0098 205.935 66.4154 207.379 66.4154C208.207 66.4154 209.034 66.2952 209.877 66.0849C210.719 65.8746 211.532 65.5892 212.299 65.2586L212.66 69.1496C211.848 69.4351 210.9 69.7055 209.847 69.9458C208.793 70.1862 207.845 70.3064 207.033 70.3064C205.498 70.3064 204.174 70.066 203.061 69.6153C201.947 69.1646 201.059 68.5487 200.382 67.7825C199.705 67.0164 199.224 66.115 198.908 65.0784C198.592 64.0418 198.441 62.9301 198.441 61.7282V40.0199H191.219V36.1289H198.441V26.5442H202.775V36.1289Z" fill="#11202C"/>
<path d="M5.13794 69.4351H28.9717V68.053H21.3281V26.9048H5.13794V28.2869H12.7966V68.053H5.13794V69.4351V69.4351Z" fill="#496081"/>
</g>
<path d="M21.5119 121.174V102.57H29.6822C31.8419 102.57 33.4551 103.194 34.5479 104.313C35.5887 105.38 36.2132 106.837 36.2132 108.554C36.2132 112.067 33.8974 114.435 29.9944 114.435H25.4149V121.174H21.5119ZM25.4149 105.848V111.364H29.3179C31.2954 111.364 32.3362 110.271 32.3362 108.58C32.3362 106.837 31.2434 105.848 29.37 105.848H25.4149ZM207.819 121.174V102.57H215.989C218.149 102.57 219.762 103.194 220.855 104.313C221.895 105.38 222.52 106.837 222.52 108.554C222.52 112.067 220.204 114.435 216.301 114.435H211.722V121.174H207.819ZM211.722 105.848V111.364H215.625C217.602 111.364 218.643 110.271 218.643 108.58C218.643 106.837 217.55 105.848 215.677 105.848H211.722Z" fill="#EA731F"/>
<path d="M44.3951 121.174V102.57H52.9297C56.5204 102.57 58.9143 104.651 58.9143 107.748C58.9143 109.933 57.8995 111.598 55.5056 112.249V112.327C57.223 112.821 58.1076 113.81 58.3418 116.074C58.602 118.702 58.4979 120.705 59.1485 120.992V121.174H55.5317C55.0633 120.966 55.0113 118.884 54.8551 116.881C54.699 114.851 53.5541 113.706 51.2123 113.706H48.168V121.174H44.3951ZM48.168 105.614V110.792H52.1751C54.2307 110.792 55.2454 109.725 55.2454 108.242C55.2454 106.733 54.2827 105.614 52.2792 105.614H48.168ZM75.8297 121.59C70.3395 121.59 66.8528 117.479 66.8528 111.911C66.8528 106.342 70.3395 102.205 75.8297 102.205C81.32 102.205 84.7806 106.342 84.7806 111.911C84.7806 117.479 81.32 121.59 75.8297 121.59ZM75.8558 118.494C79.2644 118.494 80.9297 115.606 80.9297 111.911C80.9297 108.19 79.2644 105.302 75.8558 105.302C72.4471 105.302 70.7038 108.19 70.7038 111.911C70.7038 115.606 72.4471 118.494 75.8558 118.494ZM97.1369 121.174L90.8661 102.57H94.8211L98.0996 113.342C98.4639 114.565 98.9062 116.308 98.9062 116.308H98.9583C98.9583 116.308 99.4006 114.539 99.7649 113.342L103.017 102.57H106.842L100.572 121.174H97.1369ZM114.672 121.174V102.57H118.444V121.174H114.672ZM127.644 121.174V102.57H134.904C139.874 102.57 143.074 106.577 143.074 112.067C143.074 115.085 142.059 117.739 140.108 119.378C138.729 120.523 136.933 121.174 134.592 121.174H127.644ZM131.417 117.921H134.331C137.87 117.921 139.249 115.762 139.249 112.067C139.249 108.372 137.636 105.796 134.435 105.796H131.417V117.921ZM151.442 121.174V102.57H165.129V105.744H155.215V109.907H163.906V113.004H155.215V118.025H165.207V121.174H151.442ZM173.868 121.174V102.57H182.402C185.993 102.57 188.387 104.651 188.387 107.748C188.387 109.933 187.372 111.598 184.978 112.249V112.327C186.696 112.821 187.58 113.81 187.815 116.074C188.075 118.702 187.971 120.705 188.621 120.992V121.174H185.004C184.536 120.966 184.484 118.884 184.328 116.881C184.172 114.851 183.027 113.706 180.685 113.706H177.641V121.174H173.868ZM177.641 105.614V110.792H181.648C183.703 110.792 184.718 109.725 184.718 108.242C184.718 106.733 183.756 105.614 181.752 105.614H177.641ZM239.126 121.59C233.636 121.59 230.149 117.479 230.149 111.911C230.149 106.342 233.636 102.205 239.126 102.205C244.616 102.205 248.077 106.342 248.077 111.911C248.077 117.479 244.616 121.59 239.126 121.59ZM239.152 118.494C242.561 118.494 244.226 115.606 244.226 111.911C244.226 108.19 242.561 105.302 239.152 105.302C235.744 105.302 234 108.19 234 111.911C234 115.606 235.744 118.494 239.152 118.494ZM256.456 121.174V102.57H264.991C268.582 102.57 270.976 104.651 270.976 107.748C270.976 109.933 269.961 111.598 267.567 112.249V112.327C269.284 112.821 270.169 113.81 270.403 116.074C270.663 118.702 270.559 120.705 271.21 120.992V121.174H267.593C267.125 120.966 267.073 118.884 266.916 116.881C266.76 114.851 265.615 113.706 263.274 113.706H260.229V121.174H256.456ZM260.229 105.614V110.792H264.236C266.292 110.792 267.307 109.725 267.307 108.242C267.307 106.733 266.344 105.614 264.34 105.614H260.229ZM278.504 105.744V102.57H293.465V105.744H287.871V121.174H284.098V105.744H278.504ZM297.998 121.174L304.477 102.57H308.38L314.937 121.174H311.008L309.759 117.219H303.046L301.823 121.174H297.998ZM305.596 108.97L303.931 114.331H308.849L307.183 108.97C306.871 107.982 306.429 106.108 306.429 106.108H306.377C306.377 106.108 305.908 107.982 305.596 108.97ZM322.819 121.174V102.57H326.592V118.025H335.335V121.174H322.819Z" fill="#757575"/>
<rect x="348.7" y="98.2559" width="49.016" height="28.964" rx="14.482" fill="#EA731F" stroke="#EA731F" stroke-width="2.228"/>
<path d="M363.165 120.796C359.024 120.796 356.896 118.503 356.849 114.994H359.89C360.007 116.913 360.849 118.246 363.048 118.246C364.826 118.246 365.879 117.287 365.879 115.649C365.879 114.105 364.896 113.17 362.931 113.17H361.949V110.76H362.861C364.382 110.76 365.458 109.988 365.458 108.631C365.458 107.368 364.592 106.526 363.188 106.526C361.364 106.526 360.475 107.719 360.405 109.38H357.363C357.48 106.222 359.469 104.093 363.188 104.093C366.534 104.093 368.686 105.754 368.686 108.421C368.686 110.222 367.54 111.275 365.949 111.789V111.836C367.984 112.327 369.201 113.637 369.201 115.86C369.201 119.182 366.464 120.796 363.165 120.796ZM370.613 120.445V117.053H374.029V120.445H370.613ZM381.801 120.819C377.707 120.819 375.111 117.544 375.111 112.444C375.111 107.321 377.754 104.069 381.825 104.069C385.965 104.069 388.492 107.298 388.492 112.444C388.492 117.544 385.965 120.819 381.801 120.819ZM381.825 118.106C384.211 118.106 385.17 115.883 385.17 112.444C385.17 109.052 384.188 106.783 381.825 106.783C379.439 106.783 378.433 109.029 378.433 112.444C378.433 115.836 379.439 118.106 381.825 118.106Z" fill="white"/>
<path d="M6.71338 85.4648H412.626" stroke="#D6D6D6" stroke-width="2.602" stroke-linecap="square"/>
</g>
<defs>
<clipPath id="clip0_888_162">
<rect width="416.32" height="127.498" fill="white" transform="translate(0.740234 0.899811)"/>
</clipPath>
</defs>
</svg>
